<svg xmlns="http://www.w3.org/2000/svg" version="1.1" xmlns:xlink="http://www.w3.org/1999/xlink" xmlns:svgjs="http://svgjs.dev/svgjs" width="128" height="128" viewBox="0 0 128 128"><g transform="matrix(0.8046875,0,0,0.8046875,12.760752631578946,33.43321930235125)"><svg viewBox="0 0 95 57" data-background-color="#444444" preserveAspectRatio="xMidYMid meet" height="76" width="128" xmlns="http://www.w3.org/2000/svg" xmlns:xlink="http://www.w3.org/1999/xlink"><g id="tight-bounds" transform="matrix(1,0,0,1,-0.24049999999999727,-0.010573330346787202)"><svg viewBox="0 0 95.481 57.021146660693546" height="57.021146660693546" width="95.481"><g><svg viewBox="0 0 95.481 57.021146660693546" height="57.021146660693546" width="95.481"><g><svg viewBox="0 0 95.481 57.021146660693546" height="57.021146660693546" width="95.481"><g id="textblocktransform"><svg viewBox="0 0 95.481 57.021146660693546" height="57.021146660693546" width="95.481" id="textblock"><g><svg viewBox="0 0 95.481 57.021146660693546" height="57.021146660693546" width="95.481"><g><svg viewBox="0 0 95.481 57.021146660693546" height="57.021146660693546" width="95.481"><g><svg xmlns="http://www.w3.org/2000/svg" xmlns:xlink="http://www.w3.org/1999/xlink" version="1.1" x="0" y="0" viewBox="5.203847577293369 25.131695961247246 89.99230484541326 53.743304038752754" style="enable-background:new 0 0 100 100;" xml:space="preserve" height="57.021146660693546" width="95.481" class="icon-icon-0" data-fill-palette-color="accent" id="icon-0"><path d="M65.2 49.5l8.9-9.9c0.5-0.6 1.1-1 1.7-1.2 0.6-0.2 1.3-0.4 2.1-0.2 0.1 0 0.2 0 0.2 0.1l1.3 0.3c0.2 0.1 0.5 0 0.7-0.1 0.3-0.2 0.7-0.4 1.1-0.9 0.1-0.1 0.1-0.3-0.1-0.4-2.7-1.3-4.2-4.5-3.1-7.6 0.8-2.3 3.1-4 5.6-4 4-0.1 6.8 3.5 6.2 7.2-0.5 2.8-2.8 4.8-5.5 5-0.2 0-0.3 0.2-0.2 0.4 0.2 0.5 0.4 0.9 0.7 1.2 0.2 0.2 0.4 0.3 0.6 0.3l1.5 0.2c0.1 0 0.2 0 0.2 0 0.8 0.1 1.4 0.5 1.9 0.9 0.5 0.4 0.9 0.9 1.2 1.7L95 54.7c0.5 1.1 0 2.3-1 2.8-0.4 0.2-0.9 0.2-1.3 0.2-0.7-0.1-1.3-0.5-1.6-1.2l-3.3-9.4c-0.3-0.8-1-1.4-1.8-1.5l0 0c-0.8 4.8-2.4 16.4 1.8 30.8 0.3 1.1-0.4 2.1-1.6 2.4-0.3 0.1-0.6 0.1-0.9 0-0.9-0.2-1.6-0.7-1.9-1.5-2-6.7-2.8-18.9-2.8-18.9 0-0.5-0.4-0.9-0.9-1l-1.1-0.2c-0.5-0.1-1 0.2-1.2 0.6 0 0-4.9 11.2-9.1 16.8-0.5 0.7-1.4 1-2.3 0.8-0.3-0.1-0.6-0.2-0.9-0.3-1.1-0.6-1.4-1.9-0.7-2.8C73.5 60.2 76 48.8 76.9 44l0 0c-0.8-0.1-1.6 0.2-2.2 0.8l-6.4 7.7c-0.8 0.8-2.2 0.8-3 0C64.4 51.6 64.4 50.3 65.2 49.5z" fill="#00d1cd" data-fill-palette-color="accent"></path><path class="" d="M35.2 49.1l-11.3-9.6c-0.4-0.6-0.8-0.9-1.2-1.1-0.5-0.2-0.9-0.3-1.5-0.3-0.1 0-0.1 0-0.2 0l-0.4 0.1c-0.3 0.1-0.6 0-0.8-0.2-0.2-0.1-0.4-0.3-0.6-0.6-0.2-0.2-0.1-0.6 0.2-0.7 2.4-1.1 3.8-3.7 3.4-6.4-0.5-3.3-3.7-5.6-7-5.1-3.4 0.5-5.6 3.7-5 7.1 0.5 2.8 2.8 4.8 5.4 5 0.3 0 0.5 0.4 0.4 0.6-0.1 0.3-0.2 0.6-0.4 0.8-0.2 0.2-0.4 0.4-0.7 0.4l-0.6 0c-0.1 0-0.1 0-0.2 0-0.6 0.1-1 0.4-1.3 0.8-0.3 0.4-0.6 0.8-0.8 1.5L5.4 54.3c-0.5 1.1 0 2.3 1 2.8 0.4 0.2 0.8 0.2 1.3 0.2 0.7-0.1 1.3-0.5 1.6-1.2L14 45.9c0 0 0 0 0 0.1 0.1 0.7 1.1 1.1 1.8 1.3 0.7 5.3 0.7 15.5-2.4 28.4-0.3 1.1 0.4 2.3 1.6 2.6 0.3 0.1 0.6 0.1 0.9 0 0.8-0.1 1.5-0.7 1.7-1.6 0.7-3 1.3-6.6 1.7-9.8 0-0.2 0.1-0.5 0.1-0.5l7.1-1.2c0 0 0.1 0.2 0.2 0.3 1.5 2.9 3.2 6.1 4.9 8.7 0.5 0.7 1.3 1.1 2.1 0.9 0.3 0 0.5-0.2 0.8-0.3 1-0.6 1.2-2 0.6-2.9C27.7 60.8 24.2 51.2 23 46c0.4-0.4 1.1-1.2 1-1.8 0-0.1 0-0.2-0.1-0.3l8.1 8.1c0.8 0.8 2.1 0.9 2.9 0.2C36 51.4 36.1 49.9 35.2 49.1z" fill="#00d1cd" data-fill-palette-color="accent"></path><path d="M44.7 34c-3.4 0.6-5.6 3.7-5 7.1 0.5 2.8 2.8 4.8 5.5 5 0.2 0 0.5 1 0.3 1.2-0.1 0.1-0.2 0.2-0.4 0.2 0 0-1 0.1-1.1 0.1-0.5 0.1-0.9 0.3-1.2 0.6-0.3 0.3-7 4.4-7 4.4-0.6 0.5-0.7 1.3-0.3 1.9 0.2 0.2 0.4 0.4 0.7 0.5 0.4 0.1 0.9 0.1 1.2-0.2 0 0 6.3-3.6 7-3.7l0.3 0.2c0.5 3.1 1.5 10.5-1.2 19.8-0.2 0.7 0.3 1.4 1 1.5 0.2 0 0.4 0 0.6 0 0.6-0.1 1-0.5 1.2-1 1.3-4.3 1.8-12.2 1.8-12.2 0-0.3 0.3-0.6 0.6-0.6l0.4-0.1L44.7 34z" fill="#00d1cd" data-fill-palette-color="accent"></path><path d="M65.1 52.7c0 0-6.7-4.2-7-4.4-0.3-0.3-0.7-0.5-1.2-0.6 0 0-1.1-0.1-1.1-0.1-0.2 0-0.3-0.1-0.4-0.2-0.2-0.2 0.1-1.2 0.3-1.2 2.7-0.2 5-2.3 5.5-5 0.6-3.3-1.6-6.5-5-7.1l-4.4 24.9 0.4 0.1c0.3 0.1 0.6 0.3 0.6 0.6 0 0 0.5 7.9 1.8 12.2 0.2 0.5 0.6 0.9 1.2 1 0.2 0 0.4 0 0.6 0 0.8-0.1 1.2-0.8 1-1.5-2.7-9.2-1.7-16.7-1.2-19.8l0.3-0.2c0.8 0.1 7 3.7 7 3.7 0.4 0.3 0.8 0.3 1.2 0.2 0.3-0.1 0.5-0.2 0.7-0.5C65.8 54 65.7 53.2 65.1 52.7z" fill="#00d1cd" data-fill-palette-color="accent"></path></svg></g></svg></g></svg></g></svg></g></svg></g><g></g></svg></g><defs></defs></svg><rect width="95.481" height="57.021146660693546" fill="none" stroke="none" visibility="hidden"></rect></g></svg></g></svg>